<mxfile host="app.diagrams.net" modified="2020-11-12T22:38:01.951Z" agent="5.0 (Windows)" etag="JRUn4eIAjNrrzkAwwUiu" version="13.9.7" type="github">
  <diagram id="ndiAsqYJwT7ahE6xXEKA" name="Page-1">
    <mxGraphModel dx="1422" dy="763" grid="1" gridSize="10" guides="1" tooltips="1" connect="1" arrows="1" fold="1" page="1" pageScale="1" pageWidth="850" pageHeight="1100" math="0" shadow="0">
      <root>
        <mxCell id="0" />
        <mxCell id="1" parent="0" />
        <mxCell id="OgmRDVBUE_1LpYwrotLN-1" value="&lt;div&gt;Customer&lt;/div&gt;" style="shape=umlActor;verticalLabelPosition=bottom;verticalAlign=top;html=1;outlineConnect=0;" vertex="1" parent="1">
          <mxGeometry x="30" y="120" width="30" height="60" as="geometry" />
        </mxCell>
        <mxCell id="OgmRDVBUE_1LpYwrotLN-2" value="&lt;div&gt;Bank&lt;/div&gt;" style="shape=umlActor;verticalLabelPosition=bottom;verticalAlign=top;html=1;outlineConnect=0;" vertex="1" parent="1">
          <mxGeometry x="700" y="370" width="30" height="60" as="geometry" />
        </mxCell>
        <mxCell id="OgmRDVBUE_1LpYwrotLN-9" value="Log In" style="ellipse;whiteSpace=wrap;html=1;" vertex="1" parent="1">
          <mxGeometry x="140" y="30" width="140" height="70" as="geometry" />
        </mxCell>
        <mxCell id="OgmRDVBUE_1LpYwrotLN-10" value="Check Balance" style="ellipse;whiteSpace=wrap;html=1;" vertex="1" parent="1">
          <mxGeometry x="140" y="110" width="140" height="70" as="geometry" />
        </mxCell>
        <mxCell id="OgmRDVBUE_1LpYwrotLN-11" value="Transfer Funds" style="ellipse;whiteSpace=wrap;html=1;" vertex="1" parent="1">
          <mxGeometry x="140" y="200" width="140" height="70" as="geometry" />
        </mxCell>
        <mxCell id="OgmRDVBUE_1LpYwrotLN-12" value="Make Payment" style="ellipse;whiteSpace=wrap;html=1;" vertex="1" parent="1">
          <mxGeometry x="140" y="280" width="140" height="70" as="geometry" />
        </mxCell>
        <mxCell id="OgmRDVBUE_1LpYwrotLN-33" value="" style="endArrow=none;html=1;edgeStyle=orthogonalEdgeStyle;strokeColor=#000000;exitX=1;exitY=0.3333333333333333;exitDx=0;exitDy=0;exitPerimeter=0;entryX=0;entryY=0.5;entryDx=0;entryDy=0;" edge="1" parent="1" source="OgmRDVBUE_1LpYwrotLN-1" target="OgmRDVBUE_1LpYwrotLN-9">
          <mxGeometry relative="1" as="geometry">
            <mxPoint x="350" y="390" as="sourcePoint" />
            <mxPoint x="510" y="390" as="targetPoint" />
          </mxGeometry>
        </mxCell>
        <mxCell id="OgmRDVBUE_1LpYwrotLN-42" value="" style="endArrow=none;html=1;edgeStyle=orthogonalEdgeStyle;strokeColor=#000000;entryX=0.007;entryY=0.686;entryDx=0;entryDy=0;entryPerimeter=0;" edge="1" parent="1" target="OgmRDVBUE_1LpYwrotLN-12">
          <mxGeometry relative="1" as="geometry">
            <mxPoint x="70" y="140" as="sourcePoint" />
            <mxPoint x="510" y="390" as="targetPoint" />
          </mxGeometry>
        </mxCell>
        <mxCell id="OgmRDVBUE_1LpYwrotLN-45" value="" style="endArrow=none;html=1;edgeStyle=orthogonalEdgeStyle;strokeColor=#000000;entryX=0;entryY=0.5;entryDx=0;entryDy=0;" edge="1" parent="1" target="OgmRDVBUE_1LpYwrotLN-11">
          <mxGeometry relative="1" as="geometry">
            <mxPoint x="70" y="140" as="sourcePoint" />
            <mxPoint x="360" y="440" as="targetPoint" />
          </mxGeometry>
        </mxCell>
        <mxCell id="OgmRDVBUE_1LpYwrotLN-51" value="" style="endArrow=none;html=1;edgeStyle=orthogonalEdgeStyle;strokeColor=#000000;exitX=1;exitY=0.3333333333333333;exitDx=0;exitDy=0;exitPerimeter=0;" edge="1" parent="1" source="OgmRDVBUE_1LpYwrotLN-1">
          <mxGeometry relative="1" as="geometry">
            <mxPoint x="350" y="390" as="sourcePoint" />
            <mxPoint x="140" y="140" as="targetPoint" />
          </mxGeometry>
        </mxCell>
        <mxCell id="OgmRDVBUE_1LpYwrotLN-54" value="" style="endArrow=none;html=1;edgeStyle=orthogonalEdgeStyle;strokeColor=#000000;exitX=1;exitY=0.5;exitDx=0;exitDy=0;" edge="1" parent="1" source="OgmRDVBUE_1LpYwrotLN-12">
          <mxGeometry relative="1" as="geometry">
            <mxPoint x="350" y="390" as="sourcePoint" />
            <mxPoint x="700" y="390" as="targetPoint" />
          </mxGeometry>
        </mxCell>
        <mxCell id="OgmRDVBUE_1LpYwrotLN-57" value="" style="endArrow=none;html=1;edgeStyle=orthogonalEdgeStyle;strokeColor=#000000;exitX=1;exitY=0.5;exitDx=0;exitDy=0;entryX=0;entryY=0.3333333333333333;entryDx=0;entryDy=0;entryPerimeter=0;" edge="1" parent="1" source="OgmRDVBUE_1LpYwrotLN-11" target="OgmRDVBUE_1LpYwrotLN-2">
          <mxGeometry relative="1" as="geometry">
            <mxPoint x="350" y="390" as="sourcePoint" />
            <mxPoint x="650" y="80" as="targetPoint" />
            <Array as="points">
              <mxPoint x="350" y="235" />
              <mxPoint x="350" y="270" />
              <mxPoint x="650" y="270" />
              <mxPoint x="650" y="390" />
            </Array>
          </mxGeometry>
        </mxCell>
        <mxCell id="OgmRDVBUE_1LpYwrotLN-60" value="" style="endArrow=none;html=1;edgeStyle=orthogonalEdgeStyle;strokeColor=#000000;exitX=1;exitY=0.5;exitDx=0;exitDy=0;" edge="1" parent="1" source="OgmRDVBUE_1LpYwrotLN-10" target="OgmRDVBUE_1LpYwrotLN-2">
          <mxGeometry relative="1" as="geometry">
            <mxPoint x="425" y="79.5" as="sourcePoint" />
            <mxPoint x="585" y="79.5" as="targetPoint" />
            <Array as="points">
              <mxPoint x="280" y="220" />
              <mxPoint x="715" y="220" />
            </Array>
          </mxGeometry>
        </mxCell>
        <mxCell id="OgmRDVBUE_1LpYwrotLN-63" value="Verify Password" style="ellipse;whiteSpace=wrap;html=1;" vertex="1" parent="1">
          <mxGeometry x="425" y="30" width="140" height="70" as="geometry" />
        </mxCell>
        <mxCell id="OgmRDVBUE_1LpYwrotLN-64" value="Display Login Error" style="ellipse;whiteSpace=wrap;html=1;" vertex="1" parent="1">
          <mxGeometry x="425" y="130" width="140" height="70" as="geometry" />
        </mxCell>
        <mxCell id="OgmRDVBUE_1LpYwrotLN-65" value="&lt;font style=&quot;font-size: 11px&quot;&gt;&amp;lt;&amp;lt;include&amp;gt;&amp;gt;&lt;/font&gt;" style="endArrow=open;endSize=12;dashed=1;html=1;strokeColor=#000000;exitX=1;exitY=0.5;exitDx=0;exitDy=0;entryX=0;entryY=0.5;entryDx=0;entryDy=0;fontSize=20;" edge="1" parent="1" source="OgmRDVBUE_1LpYwrotLN-9" target="OgmRDVBUE_1LpYwrotLN-63">
          <mxGeometry x="0.1034" y="5" width="160" relative="1" as="geometry">
            <mxPoint x="270" y="30" as="sourcePoint" />
            <mxPoint x="430" y="30" as="targetPoint" />
            <Array as="points">
              <mxPoint x="360" y="65" />
            </Array>
            <mxPoint as="offset" />
          </mxGeometry>
        </mxCell>
        <mxCell id="OgmRDVBUE_1LpYwrotLN-67" value="&lt;font style=&quot;font-size: 11px&quot;&gt;&amp;lt;&amp;lt;extend&amp;gt;&amp;gt;&lt;/font&gt;" style="endArrow=open;endSize=12;dashed=1;html=1;strokeColor=#000000;fontSize=20;entryX=1;entryY=0.5;entryDx=0;entryDy=0;" edge="1" parent="1" target="OgmRDVBUE_1LpYwrotLN-9">
          <mxGeometry x="-0.125" width="160" relative="1" as="geometry">
            <mxPoint x="420" y="160" as="sourcePoint" />
            <mxPoint x="510" y="360" as="targetPoint" />
            <mxPoint as="offset" />
          </mxGeometry>
        </mxCell>
      </root>
    </mxGraphModel>
  </diagram>
</mxfile>
